<svg width="1200" height="1200" viewBox="0 0 1200 1200" fill="none" xmlns="http://www.w3.org/2000/svg">
<defs>
<linearGradient id="g1" x1="220" y1="180" x2="980" y2="1020" gradientUnits="userSpaceOnUse">
<stop stop-color="#6366F1"/>
<stop offset="1" stop-color="#8B5CF6"/>
</linearGradient>
<radialGradient id="g2" cx="0" cy="0" r="1" gradientUnits="userSpaceOnUse" gradientTransform="translate(600 520) rotate(90) scale(430)">
<stop stop-color="#E0E7FF" stop-opacity="0.85"/>
<stop offset="1" stop-color="#1E293B" stop-opacity="0"/>
</radialGradient>
</defs>
<rect width="1200" height="1200" rx="600" fill="#0F172A"/>
<rect x="95" y="95" width="1010" height="1010" rx="505" fill="url(#g1)" fill-opacity="0.14"/>
<circle cx="600" cy="470" r="260" fill="url(#g2)"/>
<path d="M600 286C506 286 430 362 430 456C430 550 506 626 600 626C694 626 770 550 770 456C770 362 694 286 600 286Z" fill="url(#g1)" fill-opacity="0.95"/>
<path d="M360 894C393 762 484 684 600 684C716 684 807 762 840 894" stroke="url(#g1)" stroke-width="68" stroke-linecap="round"/>
<circle cx="600" cy="600" r="480" stroke="rgba(255,255,255,0.12)" stroke-width="3"/>
</svg>